<?xml version="1.0" standalone="no"?><!DOCTYPE svg PUBLIC "-//W3C//DTD SVG 1.1//EN" "http://www.w3.org/Graphics/SVG/1.1/DTD/svg11.dtd"><svg t="1709621298740" class="icon" viewBox="0 0 1024 1024" version="1.1" xmlns="http://www.w3.org/2000/svg" p-id="5315" xmlns:xlink="http://www.w3.org/1999/xlink" width="200" height="200"><path d="M716.7488 905.2672h-482.816c-73.5232 0-133.12-59.5968-133.12-133.12V267.4176c0-73.5232 59.5968-133.12 133.12-133.12h503.296c73.5232 0 133.12 59.5968 133.12 133.12v484.3008c0 84.7872-68.7616 153.5488-153.6 153.5488z" fill="#80B7F9" p-id="5316"></path><path d="M698.8288 729.344m-234.752 0a234.752 234.752 0 1 0 469.504 0 234.752 234.752 0 1 0-469.504 0Z" fill="#80B7F9" p-id="5317"></path><path d="M870.3488 757.6576v-188.5696c-42.8544-45.824-103.8336-74.5472-171.52-74.5472-129.6896 0-234.752 105.1136-234.752 234.752 0 70.0928 30.7712 132.9664 79.4624 175.9744h179.1488c81.5616 0 147.6608-66.0992 147.6608-147.6096z" fill="#3E8BF8" p-id="5318"></path><path d="M312.064 230.5536c-21.76 0-39.3728-17.6128-39.3728-39.3728V97.6896c0-21.76 17.6128-39.3728 39.3728-39.3728s39.3728 17.6128 39.3728 39.3728v93.4912c0 21.7088-17.664 39.3728-39.3728 39.3728zM662.784 230.5536c-21.76 0-39.3728-17.6128-39.3728-39.3728V97.6896c0-21.76 17.6128-39.3728 39.3728-39.3728s39.3728 17.6128 39.3728 39.3728v93.4912c0 21.7088-17.664 39.3728-39.3728 39.3728z" fill="#80B7F9" p-id="5319"></path><path d="M272.6912 134.2976v56.8832c0 21.76 17.6128 39.3728 39.3728 39.3728s39.3728-17.6128 39.3728-39.3728V134.2976H272.6912zM623.4112 134.2976v56.8832c0 21.76 17.6128 39.3728 39.3728 39.3728s39.3728-17.6128 39.3728-39.3728V134.2976h-78.7456z" fill="#3E8BF8" p-id="5320"></path><path d="M760.576 371.2512H210.5856c-22.6304 0-40.96-18.3296-40.96-40.96s18.3296-40.96 40.96-40.96h549.9904c22.6304 0 40.96 18.3296 40.96 40.96s-18.3296 40.96-40.96 40.96zM276.992 559.7184H210.5856c-22.6304 0-40.96-18.3296-40.96-40.96s18.3296-40.96 40.96-40.96H276.992c22.6304 0 40.96 18.3296 40.96 40.96s-18.3296 40.96-40.96 40.96zM467.1488 559.7184H400.7424c-22.6304 0-40.96-18.3296-40.96-40.96s18.3296-40.96 40.96-40.96h66.4064c22.6304 0 40.96 18.3296 40.96 40.96s-18.3296 40.96-40.96 40.96zM770.2016 860.0064c-10.496 0-20.9408-3.9936-28.9792-11.9808l-78.592-78.592a40.9088 40.9088 0 0 1-11.9808-28.9792v-99.5328c0-22.6304 18.3296-40.96 40.96-40.96s40.96 18.3296 40.96 40.96v82.5856l66.6112 66.6112c15.9744 15.9744 15.9744 41.9328 0 57.9072a40.8576 40.8576 0 0 1-28.9792 11.9808z" fill="#FFFFFF" p-id="5321"></path></svg>