<?xml version="1.0" standalone="no"?><!DOCTYPE svg PUBLIC "-//W3C//DTD SVG 1.1//EN" "http://www.w3.org/Graphics/SVG/1.1/DTD/svg11.dtd"><svg t="1720664336223" class="icon" viewBox="0 0 1024 1024" version="1.1" xmlns="http://www.w3.org/2000/svg" p-id="6238" xmlns:xlink="http://www.w3.org/1999/xlink" width="200" height="200"><path d="M512 65.984C266.08 65.984 65.984 266.08 65.984 512c0 245.952 200.064 446.016 446.016 446.016 245.952 0 446.016-200.064 446.016-446.016C958.016 266.08 757.952 65.984 512 65.984zM727.232 438.432l-256.224 259.008c-0.064 0.064-0.192 0.096-0.256 0.192-0.096 0.064-0.096 0.192-0.192 0.256-2.048 1.984-4.576 3.2-6.944 4.544-1.184 0.672-2.144 1.696-3.392 2.176-3.84 1.536-7.904 2.336-11.968 2.336-4.096 0-8.224-0.8-12.096-2.4-1.28-0.544-2.304-1.632-3.52-2.304-2.368-1.344-4.832-2.528-6.88-4.544-0.064-0.064-0.096-0.192-0.16-0.256-0.064-0.096-0.192-0.096-0.256-0.192l-126.016-129.504c-12.32-12.672-12.032-32.928 0.64-45.248 12.672-12.288 32.896-12.064 45.248 0.64l103.264 106.112 233.28-235.84c12.416-12.576 32.704-12.704 45.248-0.256C739.52 405.6 739.648 425.856 727.232 438.432z" p-id="6239"></path></svg>