<?xml version="1.0" standalone="no"?><!DOCTYPE svg PUBLIC "-//W3C//DTD SVG 1.1//EN" "http://www.w3.org/Graphics/SVG/1.1/DTD/svg11.dtd"><svg t="1720664370213" class="icon" viewBox="0 0 1024 1024" version="1.1" xmlns="http://www.w3.org/2000/svg" p-id="6700" xmlns:xlink="http://www.w3.org/1999/xlink" width="200" height="200"><path d="M942.656 769.376 602.112 159.584c-22.144-39.712-55.104-62.496-90.304-62.496-35.232 0-68.16 22.784-90.368 62.528L81.312 769.344c-22.016 39.456-24.256 79.456-6.112 110.4C93.344 910.624 129.664 928 174.88 928l674.24 0c45.184 0 81.536-17.376 99.648-48.256C966.944 848.8 964.672 808.832 942.656 769.376zM480 320c0-17.664 14.336-32 32-32s32 14.336 32 32l0 288c0 17.696-14.336 32-32 32s-32-14.304-32-32L480 320zM512 832.128c-26.528 0-48-21.504-48-48s21.472-48 48-48 48 21.504 48 48S538.528 832.128 512 832.128z" p-id="6701"></path></svg>